<?xml version="1.0" encoding="utf-8"?>
<!-- Generator: Adobe Illustrator 17.0.0, SVG Export Plug-In . SVG Version: 6.00 Build 0)  -->
<!DOCTYPE svg PUBLIC "-//W3C//DTD SVG 1.1//EN" "http://www.w3.org/Graphics/SVG/1.1/DTD/svg11.dtd">
<svg version="1.1" id="Layer_1" xmlns="http://www.w3.org/2000/svg" xmlns:xlink="http://www.w3.org/1999/xlink" x="0px" y="0px"
	 width="90px" height="44px" viewBox="0 0 90 44" enable-background="new 0 0 90 44" xml:space="preserve">
<path fill="#B9B8B8" d="M5.953,33.197c3.19,7.23,20.946,11.162,30.724,6.378c0,0,7.123,5.422,12.439,1.064
	c5.527,2.764,18.283,2.339,22.748-5.209c11.907-0.532,16.157-15.521,4.676-21.156C73.778,5.771,62.084-3.373,47.733,3.325
	C36.89-3.478,30.405,7.471,30.405,7.471s-6.909-0.849-8.61,7.123c-6.592-1.063-8.929,4.89-8.929,4.89s-6.594-2.872-8.295,4.783
	C0,26.713,2.126,33.197,5.953,33.197z"/>
</svg>
