<?xml version="1.0" encoding="utf-8"?>
<!-- Generator: Adobe Illustrator 17.0.0, SVG Export Plug-In . SVG Version: 6.00 Build 0)  -->
<!DOCTYPE svg PUBLIC "-//W3C//DTD SVG 1.1//EN" "http://www.w3.org/Graphics/SVG/1.1/DTD/svg11.dtd">
<svg version="1.1" id="Layer_1" xmlns="http://www.w3.org/2000/svg" xmlns:xlink="http://www.w3.org/1999/xlink" x="0px" y="0px"
	 width="90px" height="44px" viewBox="0 0 90 44" enable-background="new 0 0 90 44" xml:space="preserve">
<path fill="#B9B8B8" d="M76.497,24.637c-0.869,0-1.717,0.015-2.541,0.041c-0.794-1.435-2.307-2.42-4.066-2.42
	c-0.953,0-1.837,0.288-2.575,0.779c-1.401-2.768-4.266-4.667-7.576-4.667c-1.521,0-2.946,0.406-4.182,1.105
	c-2.191-3.791-6.283-6.351-10.973-6.351c-1.433,0-2.807,0.249-4.092,0.689C37.63,8.217,31.821,4.38,25.105,4.38
	c-7.397,0-13.691,4.656-16.161,11.188C4.636,16.477,1.4,20.301,1.4,24.88c0,5.257,4.263,9.52,9.52,9.52
	c0.764,0,1.501-0.096,2.213-0.266c3.107,2.987,7.321,4.832,11.972,4.832c4.126,0,7.911-1.45,10.884-3.862
	c2.26,2.09,5.274,3.379,8.596,3.379c4.055,0,7.658-1.916,9.979-4.881c1.433,1.105,3.225,1.768,5.175,1.768
	c3.281,0,6.124-1.862,7.54-4.587c0.747,0.504,1.643,0.8,2.611,0.8c1.738,0,3.238-0.961,4.04-2.375
	c0.833,0.028,1.687,0.043,2.566,0.043c7.456,0,13.503-1.03,13.503-2.307C90,25.669,83.953,24.637,76.497,24.637z"/>
</svg>
