<?xml version="1.0" encoding="utf-8"?>
<!-- Generator: Adobe Illustrator 17.0.0, SVG Export Plug-In . SVG Version: 6.00 Build 0)  -->
<!DOCTYPE svg PUBLIC "-//W3C//DTD SVG 1.1//EN" "http://www.w3.org/Graphics/SVG/1.1/DTD/svg11.dtd">
 

<svg version="1.1" id="Layer_1" xmlns="http://www.w3.org/2000/svg" xmlns:xlink="http://www.w3.org/1999/xlink" x="0px" y="0px"
	 width="412px" height="535px" viewBox="0 0 412 535" enable-background="new 0 0 412 535" xml:space="preserve">
	 <style>

@-webkit-keyframes animateOne {from{transform-origin: 50% 50% 0;transform: rotateZ(0deg);}to{transform-origin: 50% 50% 0;transform: rotateZ(100000deg);}}
@keyframes animateOne {from{transform-origin: 50% 50% 0;transform: rotateZ(0deg);}to{transform-origin: 50% 50% 0;transform: rotateZ(100000deg);}}

@-webkit-keyframes animatehand {from{transform: rotateZ(0deg);transform-origin: 45% 3%;}to{transform: rotateZ(360deg);transform-origin: 45% 3%;}}
@keyframes animatehand {from{transform: rotateZ(0deg);transform-origin: 45% 3%;}to{transform: rotateZ(360deg);transform-origin: 45% 3%;}}

@-webkit-keyframes animatecircls{from{background:#000;}to{background:#fff;}}
@keyframes animatecircls {from{background:#000;}to{background:#fff;}}





.animateOneClass {
   -webkit-animation-name: animateOne; /* Chrome, Safari, Opera */
   -webkit-animation-duration: 500s; /* Chrome, Safari, Opera */
   -webkit-animation-iteration-count: infinite;
animation-name: animateOne; /* Chrome, Safari, Opera */
animation-duration: 500s; /* Chrome, Safari, Opera */
animation-iteration-count: infinite;
}
.animateHandClass {
   
   -webkit-animation-name: animatehand; /* Chrome, Safari, Opera */
   -webkit-animation-duration: 5s; /* Chrome, Safari, Opera */
   -webkit-animation-iteration-count: infinite;
   animation-name: animatehand; /* Chrome, Safari, Opera */
   animation-duration: 5s; /* Chrome, Safari, Opera */
   animation-iteration-count: infinite;
     
}
.animatecircls{
   
   -webkit-animation-name: animatecircls; /* Chrome, Safari, Opera */
   -webkit-animation-duration: 5s; /* Chrome, Safari, Opera */
   -webkit-animation-iteration-count: infinite;
   animation-name: animatecircls; /* Chrome, Safari, Opera */
   animation-duration: 5s; /* Chrome, Safari, Opera */
   animation-iteration-count: infinite;
     
}
</style>
<g>
	<path fill="#FF0000" d="M49.7,341.669h-5.943V174.381c0-4.915,3.999-8.914,8.915-8.914h0.659c4.916,0,8.915,3.999,8.915,8.914
		v76.981c0,1.639,1.273,2.971,2.836,2.971c1.564,0,2.836-1.333,2.836-2.971v-76.981c0-4.915,3.999-8.914,8.915-8.914h0.659
		c4.915,0,8.914,3.999,8.914,8.914v73.172c0,1.639,1.333,2.972,2.972,2.972h1.124c1.638,0,2.971-1.333,2.971-2.972v-71.092
		c0-4.916,3.939-8.915,8.78-8.915c4.841,0,8.779,3.999,8.779,8.915v72.362c0,1.638,1.333,2.972,2.972,2.972h1.588
		c1.638,0,2.972-1.334,2.972-2.972v-72.255c0-4.916,3.999-8.915,8.914-8.915h2.054c4.916,0,8.914,3.999,8.914,8.915v72.255
		c0,1.638,1.333,2.972,2.972,2.972h0.659c1.335,0,2.358-0.199,2.972-0.39V250.4h5.943v2.183c0,3.131-3.499,5.155-8.915,5.155h-0.659
		c-4.916,0-8.914-3.999-8.914-8.915v-72.255c0-1.639-1.333-2.972-2.971-2.972h-2.054c-1.638,0-2.971,1.333-2.971,2.972v72.255
		c0,4.916-3.999,8.915-8.915,8.915h-1.588c-4.916,0-8.915-3.999-8.915-8.915v-72.362c0-1.639-1.273-2.972-2.836-2.972
		c-1.565,0-2.837,1.333-2.837,2.972v71.092c0,4.916-3.999,8.915-8.914,8.915h-1.124c-4.916,0-8.915-3.999-8.915-8.915v-73.172
		c0-1.638-1.333-2.971-2.971-2.971h-0.659c-1.638,0-2.971,1.333-2.971,2.971v76.981c0,4.916-3.939,8.915-8.78,8.915
		c-4.841,0-8.779-3.999-8.779-8.915v-76.981c0-1.638-1.333-2.971-2.972-2.971h-0.659c-1.639,0-2.972,1.333-2.972,2.971V341.669z"/>
</g>
<g>
	<g class="animateOneClass">
		<path fill="#F9BD38" d="M144.653,195.947l1.175-2.954l-1.755-0.698c0.178-1.113,0.123-2.23-0.137-3.29l1.824-0.786l-1.258-2.92
			l-1.894,0.817c-0.612-0.854-1.389-1.599-2.309-2.182l0.78-1.961l-2.955-1.175l-0.785,1.974c-1.063-0.198-2.132-0.18-3.156,0.025
			l-0.833-1.932l-2.919,1.259l0.809,1.88c-0.898,0.589-1.688,1.353-2.313,2.269l-1.824-0.725l-1.175,2.954l1.736,0.691
			c-0.252,1.136-0.256,2.284-0.043,3.382l-1.626,0.701l1.259,2.919l1.555-0.67c0.629,0.973,1.463,1.824,2.473,2.476l-0.605,1.521
			l2.955,1.175l0.6-1.508c1.187,0.231,2.386,0.196,3.52-0.074l0.653,1.514l2.921-1.258l-0.676-1.566
			c0.927-0.656,1.729-1.505,2.336-2.519L144.653,195.947z M135.062,192.902c-1.057-0.42-1.573-1.618-1.152-2.676
			c0.42-1.057,1.619-1.574,2.676-1.153c1.058,0.42,1.573,1.619,1.153,2.676C137.317,192.806,136.12,193.323,135.062,192.902z"/>
	</g>
	<g>
		<circle fill="#FFFFFF" cx="135.824" cy="190.987" r="2.061"/>
	</g>
</g>
<g>
	<g class="animateOneClass">
		<path fill="#22648A" d="M54.319,195.947l1.175-2.954l-1.754-0.698c0.178-1.113,0.123-2.23-0.137-3.29l1.824-0.786l-1.258-2.92
			l-1.894,0.817c-0.613-0.854-1.389-1.599-2.31-2.182l0.78-1.961l-2.955-1.175l-0.785,1.974c-1.063-0.198-2.132-0.18-3.156,0.025
			l-0.832-1.932l-2.919,1.259l0.81,1.88c-0.898,0.589-1.688,1.353-2.314,2.269l-1.824-0.725l-1.175,2.954l1.737,0.691
			c-0.252,1.136-0.256,2.284-0.043,3.382l-1.625,0.701l1.259,2.919l1.556-0.67c0.628,0.973,1.462,1.824,2.472,2.476l-0.604,1.521
			l2.955,1.175l0.599-1.508c1.188,0.231,2.386,0.196,3.52-0.074l0.652,1.514l2.921-1.258l-0.675-1.566
			c0.927-0.656,1.728-1.505,2.335-2.519L54.319,195.947z M44.727,192.902c-1.058-0.42-1.573-1.618-1.152-2.676
			c0.42-1.057,1.619-1.574,2.676-1.153c1.058,0.42,1.573,1.619,1.153,2.676C46.983,192.806,45.785,193.323,44.727,192.902z"/>
	</g>
	<g>
		<circle fill="#FFFFFF" cx="45.489" cy="190.987" r="2.06"/>
	</g>
</g>
<g>
	<polygon fill="#22648A" points="32.244,341.781 37.592,336.433 55.866,336.433 61.437,342.004 	"/>
</g>
<g>
	<g>
		<polygon fill="#EABEA7" points="367.419,207.065 362.07,207.065 362.07,198.1 309.78,198.1 309.78,192.751 367.419,192.751 		"/>
	</g>
</g>
<g>
	<g>
		<polygon fill="#EABEA7" points="339.785,207.065 334.436,207.065 334.436,198.1 282.146,198.1 282.146,192.751 339.785,192.751 		
			"/>
	</g>
</g>
<g>
	<g>
		<ellipse fill="#F9BD38" cx="337.232" cy="211.85" rx="3.22" ry="1.112"/>
	</g>
	<g>
		<ellipse fill="#F9BD38" cx="337.232" cy="213.438" rx="3.22" ry="1.112"/>
	</g>
	<g>
		<ellipse fill="#F9BD38" cx="337.232" cy="215.025" rx="3.22" ry="1.112"/>
	</g>
	<g>
		<ellipse fill="#F9BD38" cx="337.232" cy="216.614" rx="3.22" ry="1.112"/>
	</g>
	<g>
		<ellipse fill="#F9BD38" cx="337.232" cy="218.201" rx="3.22" ry="1.112"/>
	</g>
	<g>
		<ellipse fill="#F9BD38" cx="337.232" cy="219.79" rx="3.22" ry="1.112"/>
	</g>
	<g>
		<ellipse fill="#F9BD38" cx="337.232" cy="221.378" rx="3.22" ry="1.112"/>
	</g>
	<g>
		<ellipse fill="#F9BD38" cx="337.232" cy="222.965" rx="3.22" ry="1.112"/>
	</g>
	<g>
		<ellipse fill="#F9BD38" cx="337.232" cy="224.553" rx="3.22" ry="1.112"/>
	</g>
	<g>
		<ellipse fill="#F9BD38" cx="337.232" cy="226.141" rx="3.22" ry="1.112"/>
	</g>
	<g>
		<ellipse fill="#F9BD38" cx="337.232" cy="227.729" rx="3.22" ry="1.112"/>
	</g>
	<g>
		<ellipse fill="#F9BD38" cx="337.232" cy="229.317" rx="3.22" ry="1.112"/>
	</g>
	<g>
		<ellipse fill="#F9BD38" cx="337.232" cy="230.905" rx="3.22" ry="1.112"/>
	</g>
	<g>
		<ellipse fill="#F9BD38" cx="337.232" cy="232.493" rx="3.22" ry="1.112"/>
	</g>
	<g>
		<ellipse fill="#F9BD38" cx="337.232" cy="234.081" rx="3.22" ry="1.112"/>
	</g>
	<g>
		<ellipse fill="#F9BD38" cx="337.232" cy="235.669" rx="3.22" ry="1.112"/>
	</g>
	<g>
		<ellipse fill="#F9BD38" cx="337.232" cy="237.256" rx="3.22" ry="1.112"/>
	</g>
	<g>
		<ellipse fill="#F9BD38" cx="337.232" cy="238.845" rx="3.22" ry="1.112"/>
	</g>
	<g>
		<ellipse fill="#F9BD38" cx="337.232" cy="240.433" rx="3.22" ry="1.112"/>
	</g>
	<g>
		<ellipse fill="#F9BD38" cx="337.232" cy="242.02" rx="3.22" ry="1.112"/>
	</g>
	<g>
		<ellipse fill="#F9BD38" cx="337.232" cy="243.608" rx="3.22" ry="1.112"/>
	</g>
	<g>
		<ellipse fill="#F9BD38" cx="337.232" cy="245.196" rx="3.22" ry="1.112"/>
	</g>
	<g>
		<ellipse fill="#F9BD38" cx="337.232" cy="246.784" rx="3.22" ry="1.112"/>
	</g>
	<g>
		<ellipse fill="#F9BD38" cx="337.232" cy="248.372" rx="3.22" ry="1.112"/>
	</g>
	<g>
		<ellipse fill="#F9BD38" cx="337.232" cy="249.96" rx="3.22" ry="1.112"/>
	</g>
	<g>
		<ellipse fill="#F9BD38" cx="337.232" cy="251.548" rx="3.22" ry="1.112"/>
	</g>
	<g>
		<ellipse fill="#F9BD38" cx="337.232" cy="253.136" rx="3.22" ry="1.112"/>
	</g>
	<g>
		<ellipse fill="#F9BD38" cx="337.232" cy="254.724" rx="3.22" ry="1.112"/>
	</g>
	<g>
		<ellipse fill="#F9BD38" cx="337.232" cy="256.311" rx="3.22" ry="1.112"/>
	</g>
	<g>
		<ellipse fill="#F9BD38" cx="337.232" cy="257.899" rx="3.22" ry="1.112"/>
	</g>
	<g>
		<ellipse fill="#F9BD38" cx="337.232" cy="259.488" rx="3.22" ry="1.112"/>
	</g>
	<g>
		<ellipse fill="#F9BD38" cx="337.232" cy="261.075" rx="3.22" ry="1.112"/>
	</g>
	<g>
		<ellipse fill="#F9BD38" cx="337.232" cy="262.663" rx="3.22" ry="1.112"/>
	</g>
	<g>
		<ellipse fill="#F9BD38" cx="337.232" cy="264.251" rx="3.22" ry="1.112"/>
	</g>
	<g>
		<ellipse fill="#F9BD38" cx="337.232" cy="265.839" rx="3.22" ry="1.112"/>
	</g>
	<g>
		<ellipse fill="#F9BD38" cx="337.232" cy="267.427" rx="3.22" ry="1.112"/>
	</g>
</g>
<g>
	<g>
		<ellipse fill="#F9BD38" cx="365.165" cy="211.85" rx="3.22" ry="1.112"/>
	</g>
	<g>
		<ellipse fill="#F9BD38" cx="365.165" cy="213.438" rx="3.22" ry="1.112"/>
	</g>
	<g>
		<ellipse fill="#F9BD38" cx="365.165" cy="215.025" rx="3.22" ry="1.112"/>
	</g>
	<g>
		<ellipse fill="#F9BD38" cx="365.165" cy="216.614" rx="3.22" ry="1.112"/>
	</g>
	<g>
		<ellipse fill="#F9BD38" cx="365.165" cy="218.201" rx="3.22" ry="1.112"/>
	</g>
	<g>
		<ellipse fill="#F9BD38" cx="365.165" cy="219.79" rx="3.22" ry="1.112"/>
	</g>
	<g>
		<ellipse fill="#F9BD38" cx="365.165" cy="221.378" rx="3.22" ry="1.112"/>
	</g>
	<g>
		<ellipse fill="#F9BD38" cx="365.165" cy="222.965" rx="3.22" ry="1.112"/>
	</g>
	<g>
		<ellipse fill="#F9BD38" cx="365.165" cy="224.553" rx="3.22" ry="1.112"/>
	</g>
	<g>
		<ellipse fill="#F9BD38" cx="365.165" cy="226.141" rx="3.22" ry="1.112"/>
	</g>
	<g>
		<ellipse fill="#F9BD38" cx="365.165" cy="227.729" rx="3.22" ry="1.112"/>
	</g>
	<g>
		<ellipse fill="#F9BD38" cx="365.165" cy="229.317" rx="3.22" ry="1.112"/>
	</g>
	<g>
		<ellipse fill="#F9BD38" cx="365.165" cy="230.905" rx="3.22" ry="1.112"/>
	</g>
	<g>
		<ellipse fill="#F9BD38" cx="365.165" cy="232.493" rx="3.22" ry="1.112"/>
	</g>
	<g>
		<ellipse fill="#F9BD38" cx="365.165" cy="234.081" rx="3.22" ry="1.112"/>
	</g>
	<g>
		<ellipse fill="#F9BD38" cx="365.165" cy="235.669" rx="3.22" ry="1.112"/>
	</g>
	<g>
		<ellipse fill="#F9BD38" cx="365.165" cy="237.256" rx="3.22" ry="1.112"/>
	</g>
	<g>
		<ellipse fill="#F9BD38" cx="365.165" cy="238.845" rx="3.22" ry="1.112"/>
	</g>
	<g>
		<ellipse fill="#F9BD38" cx="365.165" cy="240.433" rx="3.22" ry="1.112"/>
	</g>
	<g>
		<ellipse fill="#F9BD38" cx="365.165" cy="242.02" rx="3.22" ry="1.112"/>
	</g>
	<g>
		<ellipse fill="#F9BD38" cx="365.165" cy="243.608" rx="3.22" ry="1.112"/>
	</g>
	<g>
		<ellipse fill="#F9BD38" cx="365.165" cy="245.196" rx="3.22" ry="1.112"/>
	</g>
	<g>
		<ellipse fill="#F9BD38" cx="365.165" cy="246.784" rx="3.22" ry="1.112"/>
	</g>
	<g>
		<ellipse fill="#F9BD38" cx="365.165" cy="248.372" rx="3.22" ry="1.112"/>
	</g>
	<g>
		<ellipse fill="#F9BD38" cx="365.165" cy="249.96" rx="3.22" ry="1.112"/>
	</g>
	<g>
		<ellipse fill="#F9BD38" cx="365.165" cy="251.548" rx="3.22" ry="1.112"/>
	</g>
	<g>
		<ellipse fill="#F9BD38" cx="365.165" cy="253.136" rx="3.22" ry="1.112"/>
	</g>
	<g>
		<ellipse fill="#F9BD38" cx="365.165" cy="254.724" rx="3.22" ry="1.112"/>
	</g>
	<g>
		<ellipse fill="#F9BD38" cx="365.165" cy="256.311" rx="3.22" ry="1.112"/>
	</g>
	<g>
		<ellipse fill="#F9BD38" cx="365.165" cy="257.899" rx="3.22" ry="1.112"/>
	</g>
	<g>
		<ellipse fill="#F9BD38" cx="365.165" cy="259.488" rx="3.22" ry="1.112"/>
	</g>
	<g>
		<ellipse fill="#F9BD38" cx="365.165" cy="261.075" rx="3.22" ry="1.112"/>
	</g>
	<g>
		<ellipse fill="#F9BD38" cx="365.165" cy="262.663" rx="3.22" ry="1.112"/>
	</g>
	<g>
		<ellipse fill="#F9BD38" cx="365.165" cy="264.251" rx="3.22" ry="1.112"/>
	</g>
	<g>
		<ellipse fill="#F9BD38" cx="365.165" cy="265.839" rx="3.22" ry="1.112"/>
	</g>
	<g>
		<ellipse fill="#F9BD38" cx="365.165" cy="267.427" rx="3.22" ry="1.112"/>
	</g>
</g>
<g>
	<path fill="#F9BD38" d="M341.576,209.392c0,0.985-0.799,1.783-1.783,1.783h-5.349c-0.984,0-1.783-0.798-1.783-1.783v-2.377
		c0-0.985,0.799-1.783,1.783-1.783h5.349c0.984,0,1.783,0.798,1.783,1.783V209.392z"/>
</g>
<g>
	<path fill="#F9BD38" d="M369.202,209.392c0,0.985-0.799,1.783-1.783,1.783h-5.349c-0.984,0-1.783-0.798-1.783-1.783v-2.377
		c0-0.985,0.799-1.783,1.783-1.783h5.349c0.984,0,1.783,0.798,1.783,1.783V209.392z"/>
</g>
<g>
	<polygon fill="#F9BD38" points="333.277,267.713 341.098,267.713 341.098,273.154 333.447,273.154 	"/>
</g>
<g>
	<polygon fill="#F9BD38" points="361.507,267.713 369.328,267.713 369.328,273.154 361.676,273.154 	"/>
</g>
<g>
	<path fill="#FF0000" d="M347.519,331.819c0,5.908-4.789,10.697-10.697,10.697l0,0c-5.908,0-10.698-4.789-10.698-10.697v-48.733
		c0-5.908,4.789-10.698,10.698-10.698l0,0c5.908,0,10.697,4.789,10.697,10.698V331.819z"/>
</g>
<g>
	<path fill="#FF0000" d="M376.64,331.819c0,5.908-4.79,10.697-10.697,10.697l0,0c-5.908,0-10.698-4.789-10.698-10.697v-48.733
		c0-5.908,4.789-10.698,10.698-10.698l0,0c5.908,0,10.697,4.789,10.697,10.698V331.819z"/>
</g>
<g>
	<rect x="334.56" y="341.339" fill="#E72B48" width="3.649" height="3.445"/>
</g>
<g>
	<rect x="364.255" y="341.339" fill="#E72B48" width="3.649" height="3.445"/>
</g>
<g>
	<g>
		<path d="M338.985,296.029l-1.108-1.919c-0.451-0.735-0.734-1.211-1.005-1.713h-0.026c-0.244,0.502-0.489,0.966-0.94,1.726
			l-1.044,1.906h-1.288l2.654-4.393l-2.551-4.29h1.301l1.147,2.035c0.322,0.567,0.567,1.005,0.798,1.469h0.039
			c0.245-0.515,0.464-0.914,0.786-1.469l1.186-2.035h1.288l-2.641,4.226l2.706,4.457H338.985z"/>
	</g>
</g>
<g>
	<g>
		<path d="M367.857,296.029l-1.109-1.919c-0.451-0.735-0.734-1.211-1.004-1.713h-0.026c-0.245,0.502-0.489,0.966-0.94,1.726
			l-1.044,1.906h-1.288l2.654-4.393l-2.552-4.29h1.301l1.147,2.035c0.323,0.567,0.567,1.005,0.799,1.469h0.038
			c0.245-0.515,0.464-0.914,0.786-1.469l1.185-2.035h1.288l-2.641,4.226l2.706,4.457H367.857z"/>
	</g>
</g>
<circle fill="#F9BD38" cx="351.331" cy="169.319" r="11.266"/>
<rect x="346.061" y="172.226" fill="#F9BD38" width="10.539" height="19.262"/>
<line fill="none" stroke="#FFFFFF" stroke-width="5" stroke-miterlimit="10" x1="351.331" y1="191.124" x2="351.331" y2="175.497"/>
<path fill="#22648A" d="M361.143,191.683c0,0.803-0.651,1.454-1.453,1.454h-16.718c-0.802,0-1.454-0.651-1.454-1.454l0,0
	c0-0.803,0.651-1.453,1.454-1.453h16.718C360.493,190.23,361.143,190.881,361.143,191.683L361.143,191.683z"/>
<polyline fill="none" stroke="#FFFFFF" stroke-width="3" stroke-miterlimit="10" points="355.272,173.919 351.149,176.275 
	347.615,173.33 "/>
<g>
	<path fill="#B1C4CE" d="M277.391,277.737h-39.225c-4.916,0-8.915-3.999-8.915-8.915v-0.659c0-4.916,3.999-8.915,8.915-8.915h30.31
		c1.638,0,2.971-1.333,2.971-2.971v-2.054c0-1.639-1.333-2.971-2.971-2.971h-30.31c-4.916,0-8.915-3.999-8.915-8.915v-1.588
		c0-4.916,3.999-8.915,8.915-8.915h29.121c1.638,0,2.971-1.273,2.971-2.837c0-1.564-1.333-2.836-2.971-2.836h-28.527
		c-4.916,0-8.915-3.999-8.915-8.915v-1.124c0-4.916,3.999-8.915,8.915-8.915h27.932c1.638,0,2.971-1.333,2.971-2.972v-0.659
		c0-1.638-1.333-2.972-2.971-2.972h-29.716c-4.916,0-8.914-3.938-8.914-8.779s3.999-8.779,8.914-8.779h29.716
		c1.638,0,2.971-1.333,2.971-2.971v-0.659c0-1.638-1.333-2.971-2.971-2.971h-30.309c-4.916,0-8.915-3.999-8.915-8.915v-0.659
		c0-4.916,3.999-8.915,8.915-8.915h29.121c3.268,0,8.613,0.025,11.913,0.055l23.002,0.213c4.888,0.045,8.894,4.059,8.929,8.948
		l0.167,23.196l-5.943,0.043l-0.166-23.195c-0.012-1.637-1.405-3.033-3.042-3.048l-23.002-0.214
		c-3.285-0.03-8.605-0.055-11.858-0.055h-29.121c-1.639,0-2.971,1.333-2.971,2.972v0.659c0,1.639,1.333,2.972,2.971,2.972h30.309
		c4.916,0,8.915,3.999,8.915,8.914v0.659c0,4.915-3.999,8.914-8.915,8.914h-29.716c-1.638,0-2.971,1.272-2.971,2.836
		c0,1.564,1.333,2.836,2.971,2.836h29.716c4.916,0,8.915,3.999,8.915,8.915v0.659c0,4.916-3.999,8.914-8.915,8.914h-27.932
		c-1.639,0-2.971,1.334-2.971,2.972v1.124c0,1.638,1.333,2.971,2.971,2.971h28.527c4.916,0,8.915,3.939,8.915,8.779
		c0,4.841-3.999,8.779-8.915,8.779h-29.121c-1.638,0-2.971,1.334-2.971,2.972v1.588c0,1.639,1.333,2.972,2.971,2.972h30.31
		c4.916,0,8.915,3.999,8.915,8.914v2.054c0,4.916-3.999,8.915-8.915,8.915h-30.31c-1.638,0-2.971,1.333-2.971,2.971v0.659
		c0,1.638,1.333,2.971,2.971,2.971h39.225V277.737z"/>
</g>
<g>
	<g>
		<path fill="#11354B" d="M279.531,252.676c-0.885,0-1.784-0.111-2.68-0.339L102.07,207.949v36.508H91.373v-37.441
			c0-3.221,1.369-6.133,3.757-7.99c2.388-1.857,5.547-2.467,8.669-1.674l174.855,44.407l0.455-41.34
			c0.001-0.145-0.051-0.272-0.154-0.376c-0.104-0.105-0.231-0.158-0.376-0.158h-78.448c-6.227,0-11.292-5.066-11.292-11.292v-29.715
			h10.697v29.715c0,0.317,0.278,0.594,0.595,0.594h78.448c3.021,0,5.856,1.184,7.981,3.333c2.126,2.15,3.279,4.997,3.245,8.017
			l-0.465,42.197c-0.035,3.209-1.429,6.106-3.827,7.949C283.809,251.993,281.717,252.676,279.531,252.676z"/>
	</g>
	<g>
		<path fill="#22648A" d="M121.874,212.841c-0.179,0.696-0.888,1.116-1.584,0.937l0,0c-0.696-0.178-1.115-0.888-0.937-1.584
			l2.912-11.342c0.179-0.696,0.889-1.115,1.585-0.937l0,0c0.696,0.179,1.116,0.888,0.937,1.584L121.874,212.841z"/>
	</g>
	<g>
		<path fill="#22648A" d="M90.864,219.992c-0.718-0.002-1.3-0.586-1.298-1.304l0,0c0.002-0.718,0.586-1.3,1.304-1.298l11.71,0.025
			c0.718,0.002,1.3,0.587,1.299,1.305l0,0c-0.002,0.719-0.586,1.3-1.304,1.298L90.864,219.992z"/>
	</g>
	<g>
		<path fill="#22648A" d="M211.351,188.571c-0.043-0.717,0.503-1.334,1.22-1.378l0,0c0.717-0.043,1.334,0.503,1.378,1.22
			l0.711,11.689c0.044,0.717-0.503,1.334-1.22,1.378l0,0c-0.717,0.043-1.335-0.504-1.378-1.22L211.351,188.571z"/>
	</g>
	<g>
		<path fill="#22648A" d="M235.915,188.571c-0.043-0.717,0.503-1.334,1.22-1.378l0,0c0.718-0.043,1.335,0.503,1.378,1.22
			l0.712,11.689c0.043,0.717-0.503,1.334-1.22,1.378l0,0c-0.717,0.043-1.335-0.504-1.378-1.22L235.915,188.571z"/>
	</g>
	<g>
		<path fill="#22648A" d="M262.857,188.571c-0.043-0.717,0.503-1.334,1.22-1.378l0,0c0.717-0.043,1.335,0.503,1.378,1.22
			l0.712,11.689c0.044,0.717-0.503,1.334-1.22,1.378l0,0c-0.717,0.043-1.335-0.504-1.378-1.22L262.857,188.571z"/>
	</g>
	<g>
		<path fill="#22648A" d="M145.475,218.9c-0.179,0.696-0.888,1.116-1.584,0.937l0,0c-0.696-0.178-1.116-0.888-0.937-1.583
			l2.912-11.343c0.179-0.696,0.888-1.115,1.584-0.937l0,0c0.696,0.179,1.115,0.888,0.937,1.584L145.475,218.9z"/>
	</g>
	<g>
		<path fill="#22648A" d="M169.076,224.96c-0.179,0.696-0.888,1.116-1.584,0.937l0,0c-0.696-0.179-1.116-0.888-0.937-1.584
			l2.912-11.342c0.179-0.695,0.888-1.115,1.584-0.936l0,0c0.696,0.179,1.115,0.888,0.937,1.583L169.076,224.96z"/>
	</g>
	<g>
		<path fill="#22648A" d="M192.677,231.019c-0.179,0.696-0.887,1.116-1.584,0.937l0,0c-0.696-0.179-1.116-0.888-0.937-1.584
			l2.912-11.342c0.179-0.696,0.888-1.116,1.584-0.937l0,0c0.696,0.179,1.115,0.887,0.937,1.584L192.677,231.019z"/>
	</g>
	<g>
		<path fill="#22648A" d="M216.278,237.079c-0.178,0.695-0.888,1.115-1.583,0.937l0,0c-0.696-0.178-1.115-0.888-0.937-1.584
			l2.912-11.343c0.178-0.696,0.888-1.115,1.583-0.937l0,0c0.696,0.179,1.116,0.888,0.937,1.584L216.278,237.079z"/>
	</g>
	<g>
		<path fill="#22648A" d="M239.88,243.138c-0.179,0.696-0.888,1.116-1.584,0.937l0,0c-0.696-0.178-1.116-0.888-0.937-1.583
			l2.912-11.342c0.178-0.696,0.888-1.116,1.584-0.937l0,0c0.696,0.179,1.115,0.888,0.937,1.584L239.88,243.138z"/>
	</g>
	<g>
		<polygon fill="#E72B48" points="199.536,164.225 188.839,164.819 182.301,153.527 204.885,153.527 		"/>
	</g>
	<g>
		<path fill="#E72B48" d="M201.319,165.413c0,0.657-0.532,1.188-1.189,1.188H187.65c-0.656,0-1.188-0.532-1.188-1.188l0,0
			c0-0.656,0.532-1.189,1.188-1.189h12.481C200.787,164.225,201.319,164.757,201.319,165.413L201.319,165.413z"/>
	</g>
</g>
<g>
	<g>
		<g class="animateOneClass">
			<path fill="#F9BD38" d="M256.516,248.698l1.175-2.954l-1.754-0.698c0.177-1.113,0.123-2.23-0.138-3.29l1.824-0.786l-1.259-2.92
				l-1.894,0.816c-0.612-0.854-1.388-1.599-2.309-2.181l0.78-1.962l-2.956-1.174l-0.784,1.973c-1.063-0.197-2.132-0.18-3.156,0.026
				l-0.832-1.932l-2.919,1.26l0.809,1.879c-0.897,0.589-1.688,1.354-2.313,2.269l-1.824-0.725l-1.175,2.954l1.736,0.69
				c-0.252,1.136-0.255,2.284-0.043,3.382l-1.626,0.701l1.259,2.919l1.556-0.669c0.628,0.973,1.462,1.823,2.472,2.475l-0.604,1.521
				l2.956,1.175l0.599-1.509c1.187,0.231,2.386,0.196,3.52-0.074l0.652,1.514l2.921-1.258l-0.676-1.567
				c0.927-0.656,1.729-1.505,2.336-2.519L256.516,248.698z M246.925,245.653c-1.057-0.42-1.573-1.618-1.153-2.677
				c0.42-1.057,1.619-1.573,2.676-1.153c1.058,0.42,1.574,1.619,1.153,2.676C249.181,245.558,247.983,246.074,246.925,245.653z"/>
		</g>
		<g>
			<circle fill="#FFFFFF" cx="247.687" cy="243.738" r="2.061"/>
		</g>
	</g>
	<g>
		<g class="animateOneClass">
			<path fill="#EABEA7" d="M272.023,237.561l1.175-2.954l-1.755-0.698c0.178-1.113,0.123-2.229-0.136-3.289l1.824-0.786l-1.259-2.92
				l-1.893,0.816c-0.612-0.854-1.39-1.6-2.31-2.18l0.781-1.962l-2.956-1.176l-0.785,1.974c-1.062-0.197-2.131-0.18-3.156,0.026
				l-0.832-1.932l-2.919,1.259l0.809,1.88c-0.898,0.588-1.688,1.353-2.313,2.268l-1.824-0.725l-1.175,2.955l1.735,0.69
				c-0.251,1.136-0.255,2.285-0.043,3.382l-1.625,0.701l1.259,2.921l1.554-0.671c0.629,0.974,1.463,1.824,2.473,2.476l-0.604,1.521
				l2.954,1.175l0.6-1.507c1.187,0.231,2.386,0.196,3.52-0.074l0.652,1.515l2.921-1.259l-0.675-1.566
				c0.927-0.657,1.73-1.504,2.337-2.519L272.023,237.561z M262.431,234.516c-1.058-0.42-1.573-1.618-1.153-2.676
				c0.42-1.058,1.619-1.574,2.676-1.154c1.058,0.42,1.573,1.619,1.153,2.676C264.687,234.42,263.489,234.937,262.431,234.516z"/>
		</g>
		<g>
			<circle fill="#FFFFFF" cx="263.193" cy="232.601" r="2.06"/>
		</g>
	</g>
</g>
<g>
	<g>
		<rect x="282.205" y="259.362" fill="#901F2A" width="4.813" height="11.433"/>
	</g>
	<g>
		<rect x="302.514" y="258.61" fill="#901F2A" width="4.813" height="11.432"/>
	</g>
	<g>
		<path fill="#E72B48" d="M315.715,259.66c0,0.985-0.799,1.783-1.783,1.783h-38.331c-0.984,0-1.783-0.798-1.783-1.783v-76.662
			c0-0.985,0.799-1.783,1.783-1.783h38.331c0.985,0,1.783,0.798,1.783,1.783V259.66z"/>
	</g>
	<g>
		<rect x="307.7" y="193.345" fill="#FFFFFF" width="4.16" height="4.16"/>
	</g>
	<g>
		<rect x="307.7" y="198.991" fill="#FFFFFF" width="4.16" height="4.16"/>
	</g>
	<g>
		<rect x="307.7" y="204.637" fill="#FFFFFF" width="4.16" height="4.16"/>
	</g>
	<g>
		<rect x="307.7" y="210.283" fill="#FFFFFF" width="4.16" height="4.16"/>
	</g>
	<g>
		<rect x="307.7" y="215.929" fill="#FFFFFF" width="4.16" height="4.161"/>
	</g>
	<g>
		<rect x="307.7" y="221.575" fill="#FFFFFF" width="4.16" height="4.16"/>
	</g>
	<g>
		<path fill="#FFFFFF" d="M312.002,192.218c-0.041-1.969-1.081-3.545-2.361-3.545c-1.28,0-2.319,1.577-2.361,3.545H312.002z"/>
	</g>
	<g>
		<path fill="#FFFFFF" d="M312.002,226.792c-0.041,1.969-1.081,3.545-2.361,3.545c-1.28,0-2.319-1.576-2.361-3.545H312.002z"/>
	</g>
	<g>
		<circle class="animatecircls"  fill="#B1C4CE" cx="294.586" cy="232.041" r="4.528"/>
		<path fill="#11354B" d="M294.586,237.757c-3.152,0-5.716-2.565-5.716-5.716c0-3.152,2.564-5.716,5.716-5.716
			c3.153,0,5.716,2.564,5.716,5.716C300.302,235.192,297.739,237.757,294.586,237.757z M294.586,228.701
			c-1.841,0-3.339,1.498-3.339,3.339c0,1.841,1.498,3.339,3.339,3.339c1.841,0,3.339-1.498,3.339-3.339
			C297.925,230.2,296.427,228.701,294.586,228.701z"/>
	</g>
	<g>
		<circle fill="#B1C4CE" cx="294.586" cy="248.736" r="4.528"/>
		<path fill="#11354B" d="M294.586,254.452c-3.152,0-5.716-2.564-5.716-5.716c0-3.152,2.564-5.716,5.716-5.716
			c3.153,0,5.716,2.565,5.716,5.716C300.302,251.888,297.739,254.452,294.586,254.452z M294.586,245.398
			c-1.841,0-3.339,1.498-3.339,3.338c0,1.841,1.498,3.339,3.339,3.339c1.841,0,3.339-1.498,3.339-3.339
			C297.925,246.895,296.427,245.398,294.586,245.398z"/>
	</g>
	<g>
		<rect x="294.42" y="228.142" fill="#E72B48" width="0.503" height="1.258"/>
	</g>
	<g>
		<rect x="294.42" y="244.984" fill="#E72B48" width="0.503" height="1.257"/>
	</g>
	<g>
		<circle fill="#B1C4CE" cx="289.365" cy="199.447" r="9.931"/>
	</g>
	<g >
		<polygon class="animateHandClass" fill="#901F2A" points="289.44,208.799 290.153,199.223 288.649,199.145 		"/>
	</g>
	<g>
		<circle fill="#22648A" cx="289.362" cy="199.302" r="1.187"/>
	</g>
</g>
<path fill="#23648B" d="M317.313,198.281c0,0.454-0.368,0.823-0.823,0.823l0,0c-0.455,0-0.823-0.368-0.823-0.823v-6.358
	c0-0.454,0.368-0.823,0.823-0.823l0,0c0.454,0,0.823,0.368,0.823,0.823V198.281z"/>
<g>
	<g>
		<g>
			<polygon fill="#22648A" points="321.369,268.822 216.177,268.822 216.177,344.894 228.063,344.894 228.063,334.79 307.7,334.79 
				307.7,344.894 321.369,344.894 			"/>
		</g>
	</g>
	<g>
		<path fill="#B1C4CE" d="M309.764,322.27c0,0.985-0.798,1.783-1.783,1.783h-79.756c-0.984,0-1.783-0.799-1.783-1.783v-42.844
			c0-0.985,0.799-1.783,1.783-1.783h79.756c0.985,0,1.783,0.798,1.783,1.783V322.27z"/>
		<path fill="#11354B" d="M307.982,325.241h-79.756c-1.639,0-2.971-1.333-2.971-2.971v-42.844c0-1.638,1.332-2.971,2.971-2.971
			h79.756c1.638,0,2.971,1.333,2.971,2.971v42.844C310.953,323.909,309.62,325.241,307.982,325.241z M228.226,278.832
			c-0.328,0-0.594,0.266-0.594,0.594v42.844c0,0.328,0.266,0.594,0.594,0.594h79.756c0.327,0,0.594-0.266,0.594-0.594v-42.844
			c0-0.328-0.266-0.594-0.594-0.594H228.226z"/>
	</g>
	<g>
		<circle fill="#B1C4CE" cx="315.712" cy="280.672" r="1.08"/>
	</g>
	<g>
		<circle fill="#EABEA7" cx="315.712" cy="284.994" r="1.08"/>
	</g>
	<g>
		<circle fill="#E72B48" cx="315.712" cy="289.316" r="1.08"/>
	</g>
	<g>
		<path fill="#11354B" d="M315.03,300.916c0,0.985-0.798,1.783-1.783,1.783h-5.151c-0.984,0-1.783-0.798-1.783-1.783l0,0
			c0-0.985,0.798-1.783,1.783-1.783h5.151C314.232,299.133,315.03,299.931,315.03,300.916L315.03,300.916z"/>
	</g>
	<rect x="231.309" y="282.218" fill="none" width="74.368" height="37"/>
	<text transform="matrix(1 0 0 1 231.3089 284.4403)"><tspan x="0" y="0" fill="#3F3B48" font-family="'Kartika'" font-size="3">&lt;!DOCTYPE html&gt;</tspan><tspan x="0" y="3.601" fill="#3F3B48" font-family="'Kartika'" font-size="3">&lt;html&gt;</tspan><tspan x="0" y="7.2" fill="#3F3B48" font-family="'Kartika'" font-size="3">&lt;head&gt;</tspan><tspan x="0" y="10.801" fill="#3F3B48" font-family="'Kartika'" font-size="3">&lt;meta charset=&quot;UTF-8&quot;&gt;</tspan><tspan x="0" y="14.4" fill="#3F3B48" font-family="'Kartika'" font-size="3">&lt;title&gt;Title of the </tspan><tspan x="0" y="18" fill="#3F3B48" font-family="'Kartika'" font-size="3">document&lt;/title&gt;</tspan><tspan x="0" y="21.601" fill="#3F3B48" font-family="'Kartika'" font-size="3">&lt;/head&gt;</tspan><tspan x="0" y="28.801" fill="#3F3B48" font-family="'Kartika'" font-size="3">&lt;body&gt;</tspan><tspan x="0" y="32.4" fill="#3F3B48" font-family="'Kartika'" font-size="3">Content of the document......</tspan></text>
</g>
<g>
	<g>
		<path fill="#98123E" d="M72.868,304.267c0.136,0.913,0.986,1.542,1.899,1.406l23.918-3.567c0.913-0.136,1.542-0.986,1.406-1.898
			l0,0c-0.136-0.913-0.985-1.542-1.898-1.406l-23.918,3.567C73.362,302.504,72.732,303.354,72.868,304.267L72.868,304.267z"/>
	</g>
	<g>
		<path fill="#E72B48" d="M72.959,296.803c-0.131,0.913,0.504,1.76,1.417,1.89l23.939,3.425c0.913,0.13,1.76-0.504,1.89-1.417l0,0
			c0.13-0.914-0.504-1.76-1.417-1.89l-23.939-3.426C73.935,295.255,73.09,295.889,72.959,296.803L72.959,296.803z"/>
	</g>
	<g>
		<path fill="#98123E" d="M72.977,311.325c0.136,0.913,0.986,1.541,1.899,1.406l23.917-3.568c0.913-0.135,1.542-0.985,1.406-1.898
			l0,0c-0.136-0.912-0.986-1.541-1.898-1.405l-23.918,3.567C73.47,309.563,72.841,310.413,72.977,311.325L72.977,311.325z"/>
	</g>
	<g>
		<path fill="#E72B48" d="M72.904,303.806c-0.131,0.913,0.503,1.76,1.417,1.89l23.939,3.425c0.913,0.131,1.759-0.503,1.89-1.417l0,0
			c0.131-0.914-0.504-1.759-1.417-1.89l-23.939-3.424C73.881,302.258,73.035,302.894,72.904,303.806L72.904,303.806z"/>
	</g>
	<g>
		<path fill="#98123E" d="M72.977,318.326c0.136,0.913,0.986,1.542,1.899,1.406l23.917-3.567c0.913-0.136,1.542-0.986,1.406-1.898
			l0,0c-0.136-0.913-0.986-1.542-1.898-1.406l-23.918,3.567C73.47,316.563,72.841,317.413,72.977,318.326L72.977,318.326z"/>
	</g>
	<g>
		<path fill="#E72B48" d="M73.067,310.861c-0.13,0.913,0.504,1.76,1.418,1.89l23.939,3.426c0.914,0.13,1.76-0.504,1.89-1.418l0,0
			c0.131-0.914-0.503-1.76-1.417-1.89l-23.939-3.425C74.044,309.313,73.198,309.948,73.067,310.861L73.067,310.861z"/>
	</g>
	<g>
		<path fill="#98123E" d="M72.977,325.167c0.136,0.912,0.986,1.542,1.899,1.406l23.917-3.567c0.913-0.136,1.542-0.986,1.406-1.899
			l0,0c-0.136-0.912-0.986-1.541-1.898-1.405l-23.918,3.567C73.47,323.404,72.841,324.255,72.977,325.167L72.977,325.167z"/>
	</g>
	<g>
		<path fill="#E72B48" d="M73.067,317.703c-0.13,0.913,0.504,1.759,1.418,1.89l23.939,3.425c0.914,0.13,1.76-0.504,1.89-1.417l0,0
			c0.131-0.914-0.503-1.76-1.417-1.891l-23.939-3.425C74.044,316.154,73.198,316.789,73.067,317.703L73.067,317.703z"/>
	</g>
	<g>
		<path fill="#98123E" d="M72.977,332.167c0.136,0.913,0.986,1.542,1.899,1.406l23.917-3.567c0.913-0.136,1.542-0.986,1.406-1.898
			l0,0c-0.136-0.913-0.986-1.542-1.898-1.407l-23.918,3.568C73.47,330.404,72.841,331.254,72.977,332.167L72.977,332.167z"/>
	</g>
	<g>
		<path fill="#E72B48" d="M73.067,324.703c-0.13,0.913,0.504,1.759,1.418,1.89l23.939,3.424c0.914,0.131,1.76-0.504,1.89-1.417l0,0
			c0.131-0.913-0.503-1.759-1.417-1.89l-23.939-3.426C74.044,323.155,73.198,323.789,73.067,324.703L73.067,324.703z"/>
	</g>
	<g>
		<path fill="#98123E" d="M72.9,339.161c0.136,0.912,0.987,1.542,1.899,1.405l23.918-3.567c0.913-0.136,1.542-0.986,1.406-1.899l0,0
			c-0.136-0.912-0.987-1.541-1.899-1.406l-23.918,3.568C73.394,337.398,72.765,338.249,72.9,339.161L72.9,339.161z"/>
	</g>
	<g>
		<path fill="#E72B48" d="M72.914,331.671c-0.131,0.914,0.504,1.759,1.417,1.891l23.939,3.424c0.914,0.131,1.76-0.503,1.89-1.416
			l0,0c0.13-0.914-0.503-1.76-1.417-1.891l-23.939-3.425C73.891,330.123,73.045,330.757,72.914,331.671L72.914,331.671z"/>
	</g>
	<g>
		<polygon fill="#E72B48" points="104.493,343.111 104.493,343.111 68.195,343.111 68.195,343.111 68.195,337.25 68.195,337.25 
			104.493,337.25 104.493,337.25 		"/>
	</g>
	<g>
		<polygon fill="#F28F63" points="104.493,297.86 104.493,297.86 68.195,297.86 68.195,297.86 68.195,292.001 68.195,292.001 
			104.493,292.001 104.493,292.001 		"/>
	</g>
</g>
<g>
	<g>
		<path fill="#98123E" d="M111.445,304.267c0.136,0.913,0.986,1.542,1.899,1.406l23.917-3.567c0.913-0.136,1.543-0.986,1.406-1.898
			l0,0c-0.136-0.913-0.986-1.542-1.898-1.406l-23.918,3.567C111.939,302.504,111.309,303.354,111.445,304.267L111.445,304.267z"/>
	</g>
	<g>
		<path fill="#E72B48" d="M111.536,296.803c-0.131,0.913,0.504,1.76,1.417,1.89l23.939,3.425c0.913,0.13,1.76-0.504,1.89-1.417l0,0
			c0.131-0.914-0.503-1.76-1.417-1.89l-23.939-3.426C112.512,295.255,111.666,295.889,111.536,296.803L111.536,296.803z"/>
	</g>
	<g>
		<path fill="#98123E" d="M111.554,311.325c0.136,0.913,0.986,1.541,1.899,1.406l23.918-3.568c0.913-0.135,1.542-0.985,1.406-1.898
			l0,0c-0.136-0.912-0.986-1.541-1.899-1.405l-23.918,3.567C112.047,309.563,111.418,310.413,111.554,311.325L111.554,311.325z"/>
	</g>
	<g>
		<path fill="#E72B48" d="M111.481,303.806c-0.13,0.913,0.504,1.76,1.417,1.89l23.939,3.425c0.914,0.131,1.76-0.503,1.89-1.417l0,0
			c0.131-0.914-0.504-1.759-1.416-1.89l-23.94-3.424C112.458,302.258,111.611,302.894,111.481,303.806L111.481,303.806z"/>
	</g>
	<g>
		<path fill="#98123E" d="M111.554,318.326c0.136,0.913,0.986,1.542,1.899,1.406l23.918-3.567c0.913-0.136,1.542-0.986,1.406-1.898
			l0,0c-0.136-0.913-0.986-1.542-1.899-1.406l-23.918,3.567C112.047,316.563,111.418,317.413,111.554,318.326L111.554,318.326z"/>
	</g>
	<g>
		<path fill="#E72B48" d="M111.644,310.861c-0.131,0.913,0.504,1.76,1.417,1.89L137,316.177c0.913,0.13,1.76-0.504,1.89-1.418l0,0
			c0.131-0.914-0.503-1.76-1.417-1.89l-23.939-3.425C112.621,309.313,111.775,309.948,111.644,310.861L111.644,310.861z"/>
	</g>
	<g>
		<path fill="#98123E" d="M111.554,325.167c0.136,0.912,0.986,1.542,1.899,1.406l23.918-3.567c0.913-0.136,1.542-0.986,1.406-1.899
			l0,0c-0.136-0.912-0.986-1.541-1.899-1.405l-23.918,3.567C112.047,323.404,111.418,324.255,111.554,325.167L111.554,325.167z"/>
	</g>
	<g>
		<path fill="#E72B48" d="M111.644,317.703c-0.131,0.913,0.504,1.759,1.417,1.89L137,323.018c0.913,0.13,1.76-0.504,1.89-1.417l0,0
			c0.131-0.914-0.503-1.76-1.417-1.891l-23.939-3.425C112.621,316.154,111.775,316.789,111.644,317.703L111.644,317.703z"/>
	</g>
	<g>
		<path fill="#98123E" d="M111.554,332.167c0.136,0.913,0.986,1.542,1.899,1.406l23.918-3.567c0.913-0.136,1.542-0.986,1.406-1.898
			l0,0c-0.136-0.913-0.986-1.542-1.899-1.407l-23.918,3.568C112.047,330.404,111.418,331.254,111.554,332.167L111.554,332.167z"/>
	</g>
	<g>
		<path fill="#E72B48" d="M111.644,324.703c-0.131,0.913,0.504,1.759,1.417,1.89L137,330.017c0.913,0.131,1.76-0.504,1.89-1.417l0,0
			c0.131-0.913-0.503-1.759-1.417-1.89l-23.939-3.426C112.621,323.155,111.775,323.789,111.644,324.703L111.644,324.703z"/>
	</g>
	<g>
		<path fill="#98123E" d="M111.477,339.161c0.137,0.912,0.986,1.542,1.898,1.405l23.919-3.567c0.912-0.136,1.541-0.986,1.406-1.899
			l0,0c-0.136-0.912-0.986-1.541-1.899-1.406l-23.918,3.568C111.971,337.398,111.341,338.249,111.477,339.161L111.477,339.161z"/>
	</g>
	<g>
		<path fill="#E72B48" d="M111.491,331.671c-0.131,0.914,0.504,1.759,1.417,1.891l23.939,3.424c0.913,0.131,1.76-0.503,1.89-1.416
			l0,0c0.131-0.914-0.504-1.76-1.417-1.891l-23.939-3.425C112.468,330.123,111.622,330.757,111.491,331.671L111.491,331.671z"/>
	</g>
	<g>
		<polygon fill="#E72B48" points="143.558,343.111 143.558,343.111 107.26,343.111 107.26,343.111 107.26,337.25 107.26,337.25 
			143.558,337.25 143.558,337.25 		"/>
	</g>
	<g>
		<polygon fill="#F28F63" points="143.558,297.86 143.558,297.86 107.26,297.86 107.26,297.86 107.26,292.001 107.26,292.001 
			143.558,292.001 143.558,292.001 		"/>
	</g>
</g>
<g>
	<path fill="#F28F63" d="M292.703,337.273c0,4.042-3.278,7.319-7.319,7.319H169.84c-4.043,0-7.32-3.277-7.32-7.319l0,0
		c0-4.042,3.277-7.32,7.32-7.32h115.544C289.425,329.953,292.703,333.23,292.703,337.273L292.703,337.273z"/>
	<path fill="#901F2B" d="M285.384,345.483H169.84c-4.527,0-8.211-3.683-8.211-8.211s3.684-8.211,8.211-8.211h115.544
		c4.527,0,8.211,3.684,8.211,8.211S289.911,345.483,285.384,345.483z M169.84,330.845c-3.545,0-6.429,2.884-6.429,6.428
		s2.884,6.428,6.429,6.428h115.544c3.544,0,6.427-2.883,6.427-6.428s-2.884-6.428-6.427-6.428H169.84z"/>
</g>
<g>
	<circle fill="#E72B48" cx="175.556" cy="337.126" r="3.525"/>
	<path fill="#901F2B" d="M175.556,342.731c-3.091,0-5.605-2.515-5.605-5.605c0-3.09,2.514-5.604,5.605-5.604
		c3.09,0,5.605,2.514,5.605,5.604C181.16,340.217,178.646,342.731,175.556,342.731z M175.556,335.682
		c-0.797,0-1.445,0.648-1.445,1.445c0,0.796,0.648,1.445,1.445,1.445s1.445-0.648,1.445-1.445
		C177,336.33,176.352,335.682,175.556,335.682z"/>
</g>
<g>
	<circle fill="#E72B48" cx="188.245" cy="337.126" r="3.525"/>
	<path fill="#901F2B" d="M188.245,342.731c-3.09,0-5.605-2.515-5.605-5.605c0-3.09,2.514-5.604,5.605-5.604
		c3.091,0,5.605,2.514,5.605,5.604C193.849,340.217,191.335,342.731,188.245,342.731z M188.245,335.682
		c-0.797,0-1.445,0.648-1.445,1.445c0,0.796,0.648,1.445,1.445,1.445s1.445-0.648,1.445-1.445
		C189.689,336.33,189.041,335.682,188.245,335.682z"/>
</g>
<g>
	<circle fill="#E72B48" cx="200.934" cy="337.126" r="3.525"/>
	<path fill="#901F2B" d="M200.933,342.731c-3.091,0-5.605-2.515-5.605-5.605c0-3.09,2.514-5.604,5.605-5.604
		c3.09,0,5.605,2.514,5.605,5.604C206.538,340.217,204.024,342.731,200.933,342.731z M200.933,335.682
		c-0.797,0-1.445,0.648-1.445,1.445c0,0.796,0.648,1.445,1.445,1.445c0.796,0,1.445-0.648,1.445-1.445
		C202.378,336.33,201.73,335.682,200.933,335.682z"/>
</g>
<g>
	<circle fill="#E72B48" cx="213.622" cy="337.126" r="3.525"/>
	<path fill="#901F2B" d="M213.622,342.731c-3.09,0-5.605-2.515-5.605-5.605c0-3.09,2.515-5.604,5.605-5.604s5.605,2.514,5.605,5.604
		C219.227,340.217,216.713,342.731,213.622,342.731z M213.622,335.682c-0.796,0-1.445,0.648-1.445,1.445
		c0,0.796,0.648,1.445,1.445,1.445s1.445-0.648,1.445-1.445C215.067,336.33,214.419,335.682,213.622,335.682z"/>
</g>
<g>
	<circle fill="#E72B48" cx="226.311" cy="337.126" r="3.525"/>
	<path fill="#901F2B" d="M226.311,342.731c-3.09,0-5.604-2.515-5.604-5.605c0-3.09,2.515-5.604,5.604-5.604
		c3.09,0,5.605,2.514,5.605,5.604C231.916,340.217,229.401,342.731,226.311,342.731z M226.311,335.682
		c-0.796,0-1.444,0.648-1.444,1.445c0,0.796,0.648,1.445,1.444,1.445c0.797,0,1.445-0.648,1.445-1.445
		C227.755,336.33,227.108,335.682,226.311,335.682z"/>
</g>
<g>
	<circle fill="#E72B48" cx="239" cy="337.126" r="3.525"/>
	<path fill="#901F2B" d="M239,342.731c-3.09,0-5.605-2.515-5.605-5.605c0-3.09,2.515-5.604,5.605-5.604
		c3.091,0,5.604,2.514,5.604,5.604C244.604,340.217,242.091,342.731,239,342.731z M239,335.682c-0.796,0-1.444,0.648-1.444,1.445
		c0,0.796,0.648,1.445,1.444,1.445c0.796,0,1.445-0.648,1.445-1.445C240.444,336.33,239.796,335.682,239,335.682z"/>
</g>
<g>
	<circle fill="#E72B48" cx="251.689" cy="337.126" r="3.524"/>
	<path fill="#901F2B" d="M251.689,342.731c-3.091,0-5.605-2.515-5.605-5.605c0-3.09,2.514-5.604,5.605-5.604
		c3.09,0,5.605,2.514,5.605,5.604C257.294,340.217,254.779,342.731,251.689,342.731z M251.689,335.682
		c-0.796,0-1.445,0.648-1.445,1.445c0,0.796,0.648,1.445,1.445,1.445c0.796,0,1.444-0.648,1.444-1.445
		C253.133,336.33,252.484,335.682,251.689,335.682z"/>
</g>
<g>
	<circle fill="#E72B48" cx="264.377" cy="337.126" r="3.525"/>
	<path fill="#901F2B" d="M264.378,342.731c-3.091,0-5.605-2.515-5.605-5.605c0-3.09,2.514-5.604,5.605-5.604
		c3.09,0,5.604,2.514,5.604,5.604C269.982,340.217,267.468,342.731,264.378,342.731z M264.378,335.682
		c-0.796,0-1.445,0.648-1.445,1.445c0,0.796,0.648,1.445,1.445,1.445c0.796,0,1.444-0.648,1.444-1.445
		C265.822,336.33,265.174,335.682,264.378,335.682z"/>
</g>
<g>
	<circle fill="#E72B48" cx="277.066" cy="337.126" r="3.525"/>
	<path fill="#901F2B" d="M277.066,342.731c-3.09,0-5.604-2.515-5.604-5.605c0-3.09,2.514-5.604,5.604-5.604
		c3.09,0,5.605,2.514,5.605,5.604C282.671,340.217,280.156,342.731,277.066,342.731z M277.066,335.682
		c-0.796,0-1.445,0.648-1.445,1.445c0,0.796,0.648,1.445,1.445,1.445s1.445-0.648,1.445-1.445
		C278.511,336.33,277.862,335.682,277.066,335.682z"/>
</g>
<g  id="blue-rectangle" width="50" height="50" x="25" y="200"  >
	<g >
		
 
		<path fill="orange"  d="M179.4,312.294h-0.472v-2.124c0-0.209-0.037-0.409-0.102-0.596c0.309-0.105,0.533-0.396,0.533-0.741
			c0-0.433-0.352-0.786-0.787-0.786h-2.832c-0.435,0-0.786,0.353-0.786,0.786c0,0.321,0.192,0.596,0.468,0.718
			c-0.071,0.194-0.112,0.402-0.112,0.62v2.124h-0.157c-1.043,0-1.888,0.845-1.888,1.888v12.742c0,1.043,0.845,1.887,1.888,1.887
			h4.248c1.043,0,1.887-0.844,1.887-1.887v-12.742C181.287,313.139,180.442,312.294,179.4,312.294z"/>


  

  
	</g>
	
	<g>
		<rect x="174.995" y="315.387" fill="#E72B48" width="6.293" height="10.279"/>
	</g>

<animate 
           xlink:href="#blue-rectangle"
           attributeName="x" 
           from="50"
           to="425" 
           dur="5s"
           begin="0s"
           repeatCount="indefinite"
           fill="freeze" 
           id="rect-anim"/>

</g>
 
<g>
	<rect x="214.074" y="292.015" fill="#F9BD38" width="2.104" height="9.583"/>
</g>
<g>
	<g>
		<path fill="#F9BD38" d="M156.648,344.3h-4.16v-35.012c0-8.029,6.532-14.561,14.561-14.561h48.077v4.161h-48.077
			c-5.735,0-10.4,4.665-10.4,10.4V344.3z"/>
	</g>
	<g>
		<g>
			<path fill="#F9BD38" d="M172.397,292.944h-5.349c-9.012,0-16.343,7.331-16.343,16.344v9.655h7.726v-9.655
				c0-4.752,3.866-8.618,8.618-8.618h5.349V292.944z"/>
		</g>
	</g>
	<g>
		<rect x="183.491" y="292.794" fill="#F9BD38" width="22.584" height="7.924"/>
	</g>
	<g>
		<rect x="150.409" y="328.254" fill="#F9BD38" width="7.924" height="16.642"/>
	</g>
</g>
<g>
	<g>
		<g>
			<ellipse fill="#901F2A" cx="160.188" cy="281.236" rx="1.112" ry="4.526"/>
		</g>
		<g>
			<ellipse fill="#901F2A" cx="161.776" cy="281.236" rx="1.112" ry="4.526"/>
		</g>
		<g>
			<ellipse fill="#901F2A" cx="163.364" cy="281.236" rx="1.112" ry="4.526"/>
		</g>
		<g>
			<ellipse fill="#901F2A" cx="164.952" cy="281.236" rx="1.112" ry="4.526"/>
		</g>
		<g>
			<ellipse fill="#901F2A" cx="166.54" cy="281.236" rx="1.112" ry="4.526"/>
		</g>
		<g>
			<ellipse fill="#901F2A" cx="168.128" cy="281.236" rx="1.112" ry="4.526"/>
		</g>
		<g>
			<ellipse fill="#901F2A" cx="169.716" cy="281.236" rx="1.112" ry="4.526"/>
		</g>
		<g>
			<ellipse fill="#901F2A" cx="171.304" cy="281.236" rx="1.112" ry="4.526"/>
		</g>
		<g>
			<ellipse fill="#901F2A" cx="172.892" cy="281.236" rx="1.112" ry="4.526"/>
		</g>
		<g>
			<ellipse fill="#901F2A" cx="174.479" cy="281.236" rx="1.112" ry="4.526"/>
		</g>
		<g>
			<ellipse fill="#901F2A" cx="176.067" cy="281.236" rx="1.112" ry="4.526"/>
		</g>
		<g>
			<ellipse fill="#901F2A" cx="177.655" cy="281.236" rx="1.112" ry="4.526"/>
		</g>
		<g>
			<ellipse fill="#901F2A" cx="179.243" cy="281.236" rx="1.112" ry="4.526"/>
		</g>
		<g>
			<ellipse fill="#901F2A" cx="180.831" cy="281.236" rx="1.112" ry="4.526"/>
		</g>
		<g>
			<ellipse fill="#901F2A" cx="182.419" cy="281.236" rx="1.112" ry="4.526"/>
		</g>
		<g>
			<ellipse fill="#901F2A" cx="184.007" cy="281.236" rx="1.112" ry="4.526"/>
		</g>
		<g>
			<ellipse fill="#901F2A" cx="185.595" cy="281.236" rx="1.112" ry="4.526"/>
		</g>
		<g>
			<ellipse fill="#901F2A" cx="187.183" cy="281.236" rx="1.112" ry="4.526"/>
		</g>
		<g>
			<ellipse fill="#901F2A" cx="188.771" cy="281.236" rx="1.112" ry="4.526"/>
		</g>
		<g>
			<ellipse fill="#901F2A" cx="190.359" cy="281.236" rx="1.112" ry="4.526"/>
		</g>
		<g>
			<ellipse fill="#901F2A" cx="191.947" cy="281.236" rx="1.112" ry="4.526"/>
		</g>
		<g>
			<ellipse fill="#901F2A" cx="193.534" cy="281.236" rx="1.112" ry="4.526"/>
		</g>
		<g>
			<ellipse fill="#901F2A" cx="195.122" cy="281.236" rx="1.112" ry="4.526"/>
		</g>
		<g>
			<ellipse fill="#901F2A" cx="196.71" cy="281.236" rx="1.112" ry="4.526"/>
		</g>
		<g>
			<ellipse fill="#901F2A" cx="198.298" cy="281.236" rx="1.112" ry="4.526"/>
		</g>
		<g>
			<ellipse fill="#901F2A" cx="199.886" cy="281.236" rx="1.112" ry="4.526"/>
		</g>
		<g>
			<ellipse fill="#901F2A" cx="201.474" cy="281.236" rx="1.112" ry="4.526"/>
		</g>
		<g>
			<ellipse fill="#901F2A" cx="203.062" cy="281.236" rx="1.112" ry="4.526"/>
		</g>
		<g>
			<ellipse fill="#901F2A" cx="204.65" cy="281.236" rx="1.112" ry="4.526"/>
		</g>
		<g>
			<ellipse fill="#901F2A" cx="206.238" cy="281.236" rx="1.111" ry="4.526"/>
		</g>
		<g>
			<ellipse fill="#901F2A" cx="207.826" cy="281.236" rx="1.112" ry="4.526"/>
		</g>
		<g>
			<ellipse fill="#901F2A" cx="209.414" cy="281.236" rx="1.112" ry="4.526"/>
		</g>
		<g>
			<ellipse fill="#901F2A" cx="211.002" cy="281.236" rx="1.112" ry="4.526"/>
		</g>
		<g>
			<ellipse fill="#901F2A" cx="212.59" cy="281.236" rx="1.112" ry="4.526"/>
		</g>
		<g>
			<ellipse fill="#901F2A" cx="214.177" cy="281.236" rx="1.112" ry="4.526"/>
		</g>
		<g>
			<ellipse fill="#901F2A" cx="215.765" cy="281.236" rx="1.112" ry="4.526"/>
		</g>
	</g>
	<g>
		<path fill="#E72B48" d="M159.718,285.463c0,0.985-0.799,1.783-1.783,1.783h-3.566c-0.984,0-1.783-0.798-1.783-1.783v-8.32
			c0-0.985,0.799-1.783,1.783-1.783h3.566c0.984,0,1.783,0.798,1.783,1.783V285.463z"/>
	</g>
	<g>
		<g>
			<rect x="148.067" y="245.565" fill="#22648A" width="7.851" height="9.67"/>
		</g>
		<g>
			<path fill="#22648A" d="M155.847,253.345c-0.17,0-0.308-0.245-0.308-0.546v-4.943c0-0.301,0.138-0.546,0.308-0.546l0,0
				c0.169,0,0.306,0.245,0.306,0.546v4.943C156.153,253.1,156.016,253.345,155.847,253.345L155.847,253.345z"/>
		</g>
		<g>
			<path fill="#22648A" d="M156.937,253.345c-0.169,0-0.306-0.245-0.306-0.546v-4.943c0-0.301,0.137-0.546,0.306-0.546l0,0
				c0.17,0,0.306,0.245,0.306,0.546v4.943C157.243,253.1,157.106,253.345,156.937,253.345L156.937,253.345z"/>
		</g>
		<g>
			<path fill="#22648A" d="M158.028,253.345c-0.169,0-0.308-0.245-0.308-0.546v-4.943c0-0.301,0.138-0.546,0.308-0.546l0,0
				c0.169,0,0.307,0.245,0.307,0.546v4.943C158.334,253.1,158.197,253.345,158.028,253.345L158.028,253.345z"/>
		</g>
		<g>
			<path fill="#22648A" d="M159.118,253.345c-0.169,0-0.306-0.245-0.306-0.546v-4.943c0-0.301,0.137-0.546,0.306-0.546l0,0
				c0.17,0,0.306,0.245,0.306,0.546v4.943C159.424,253.1,159.287,253.345,159.118,253.345L159.118,253.345z"/>
		</g>
		<g>
			<path fill="#22648A" d="M160.209,253.345c-0.169,0-0.308-0.245-0.308-0.546v-4.943c0-0.301,0.138-0.546,0.308-0.546l0,0
				c0.169,0,0.306,0.245,0.306,0.546v4.943C160.515,253.1,160.378,253.345,160.209,253.345L160.209,253.345z"/>
		</g>
		<g>
			<rect x="155.774" y="248.11" fill="#22648A" width="4.435" height="4.508"/>
		</g>
		<g>
			<g>
				<path fill="#22648A" d="M162.451,250.727h-1.225v-0.581h1.227c-0.106-2.903-2.1-3.781-2.1-3.781v8.288
					C160.354,254.653,162.307,254.435,162.451,250.727z"/>
			</g>
		</g>
	</g>
	<g>
		<g>
			<rect x="148.067" y="258.641" fill="#22648A" width="7.851" height="9.669"/>
		</g>
		<g>
			<path fill="#22648A" d="M155.847,266.42c-0.17,0-0.308-0.245-0.308-0.545v-4.943c0-0.301,0.138-0.546,0.308-0.546l0,0
				c0.169,0,0.306,0.246,0.306,0.546v4.943C156.153,266.175,156.016,266.42,155.847,266.42L155.847,266.42z"/>
		</g>
		<g>
			<path fill="#22648A" d="M156.937,266.42c-0.169,0-0.306-0.245-0.306-0.545v-4.943c0-0.301,0.137-0.546,0.306-0.546l0,0
				c0.17,0,0.306,0.246,0.306,0.546v4.943C157.243,266.175,157.106,266.42,156.937,266.42L156.937,266.42z"/>
		</g>
		<g>
			<path fill="#22648A" d="M158.028,266.42c-0.169,0-0.308-0.245-0.308-0.545v-4.943c0-0.301,0.138-0.546,0.308-0.546l0,0
				c0.169,0,0.307,0.246,0.307,0.546v4.943C158.334,266.175,158.197,266.42,158.028,266.42L158.028,266.42z"/>
		</g>
		<g>
			<path fill="#22648A" d="M159.118,266.42c-0.169,0-0.306-0.245-0.306-0.545v-4.943c0-0.301,0.137-0.546,0.306-0.546l0,0
				c0.17,0,0.306,0.246,0.306,0.546v4.943C159.424,266.175,159.287,266.42,159.118,266.42L159.118,266.42z"/>
		</g>
		<g>
			<path fill="#22648A" d="M160.209,266.42c-0.169,0-0.308-0.245-0.308-0.545v-4.943c0-0.301,0.138-0.546,0.308-0.546l0,0
				c0.169,0,0.306,0.246,0.306,0.546v4.943C160.515,266.175,160.378,266.42,160.209,266.42L160.209,266.42z"/>
		</g>
		<g>
			<rect x="155.774" y="261.185" fill="#22648A" width="4.435" height="4.509"/>
		</g>
		<g>
			<g>
				<path fill="#22648A" d="M162.451,263.802h-1.225v-0.582h1.227c-0.106-2.903-2.1-3.781-2.1-3.781v8.288
					C160.354,267.728,162.307,267.51,162.451,263.802z"/>
			</g>
		</g>
	</g>
	<g>
		<polygon fill="#23648B" points="60.667,287.444 52.941,287.444 52.941,244.258 62.251,244.258 62.251,247.824 56.506,247.824 
			56.506,283.878 60.667,283.878 		"/>
	</g>
	<g>
		<path fill="#EABEA7" d="M153.775,289.029c0,1.969-1.597,3.565-3.566,3.565H64.035c-1.969,0-3.566-1.596-3.566-3.565V240.89
			c0-1.97,1.597-3.566,3.566-3.566h86.174c1.969,0,3.566,1.597,3.566,3.566V289.029z"/>
	</g>
	<g>
		<path fill="#F9BD38" d="M144.376,224.25H76.625c-1.157,0-2.149,0.668-2.639,1.633c-0.031,0.053-0.06,0.107-0.088,0.162
			c-0.004,0.01-0.01,0.018-0.014,0.028c-0.216,0.436-0.341,0.926-0.341,1.446v16.047c0,1.805,1.464,3.268,3.269,3.268
			c1.805,0,3.269-1.463,3.269-3.268v-13.372h64.295c1.641,0,2.971-1.331,2.971-2.972C147.347,225.58,146.017,224.25,144.376,224.25z
			"/>
	</g>
	<g>
		<circle fill="#B1C4CE" cx="142.284" cy="284.869" r="2.557"/>
	</g>
	<g>
		<circle fill="#FFFFFF" cx="132.056" cy="284.869" r="2.557"/>
	</g>
	<g>
		<circle fill="#11354B" cx="110.193" cy="284.869" r="2.557"/>
	</g>
	<g>
		<circle fill="#E72B48" cx="121.827" cy="284.869" r="2.557"/>
	</g>
	<g>
		<path fill="#B1C4CE" d="M149.264,257.333c0,2.067-1.676,3.744-3.743,3.744H86.993c-2.067,0-3.743-1.677-3.743-3.744v-11.115
			c0-2.067,1.676-3.743,3.743-3.743h58.528c2.067,0,3.743,1.676,3.743,3.743V257.333z"/>
		<path fill="#11354B" d="M145.521,262.265H86.993c-2.72,0-4.932-2.213-4.932-4.932v-11.115c0-2.719,2.212-4.931,4.932-4.931h58.528
			c2.719,0,4.932,2.213,4.932,4.931v11.115C150.452,260.053,148.24,262.265,145.521,262.265z M86.993,243.664
			c-1.409,0-2.554,1.146-2.554,2.554v11.115c0,1.409,1.146,2.555,2.554,2.555h58.528c1.408,0,2.554-1.146,2.554-2.555v-11.115
			c0-1.409-1.146-2.554-2.554-2.554H86.993z"/>
	</g>
	<g>
		<path fill="#11354B" d="M124.455,260.898c0,1.86-1.508,3.368-3.367,3.368h-5.547c-1.86,0-3.368-1.508-3.368-3.368l0,0
			c0-1.86,1.508-3.368,3.368-3.368h5.547C122.947,257.53,124.455,259.039,124.455,260.898L124.455,260.898z"/>
	</g>
	<g>
		<circle fill="#FFFFFF" cx="72.36" cy="280.161" r="4.457"/>
	</g>
	<g>
		<path fill="#FFFFFF" d="M74.332,280.713c0,1.14-0.924,2.063-2.063,2.063l0,0c-1.139,0-2.063-0.923-2.063-2.063v-26.305
			c0-1.14,0.923-2.063,2.063-2.063l0,0c1.139,0,2.063,0.924,2.063,2.063V280.713z"/>
	</g>
	<g>
		<path fill="#901F2A" d="M73.257,277.04v-20.092c0-0.526-0.427-0.954-0.954-0.954c-0.527,0-0.953,0.428-0.953,0.954v19.987
			c-1.068,0.344-1.846,1.333-1.846,2.517c0,1.466,1.189,2.655,2.655,2.655c1.467,0,2.655-1.189,2.655-2.655
			C74.814,278.379,74.174,277.459,73.257,277.04z"/>
	</g>
	<g>
		<rect x="65.951" y="253.274" fill="#F28F63" width="2.46" height="0.594"/>
	</g>
	<g>
		<rect x="65.951" y="255.407" fill="#F28F63" width="2.46" height="0.594"/>
	</g>
	<g>
		<rect x="65.951" y="257.54" fill="#F28F63" width="1.476" height="0.594"/>
	</g>
	<g>
		<rect x="65.951" y="259.673" fill="#F28F63" width="2.46" height="0.594"/>
	</g>
	<g>
		<rect x="65.951" y="261.805" fill="#F28F63" width="2.46" height="0.594"/>
	</g>
	<g>
		<rect x="65.951" y="263.938" fill="#F28F63" width="1.476" height="0.594"/>
	</g>
	<g>
		<rect x="65.951" y="266.071" fill="#F28F63" width="2.46" height="0.594"/>
	</g>
	<g>
		<rect x="65.951" y="268.204" fill="#F28F63" width="2.46" height="0.594"/>
	</g>
	<g>
		<rect x="65.951" y="270.337" fill="#F28F63" width="1.476" height="0.594"/>
	</g>
	<g>
		<rect x="65.951" y="272.47" fill="#F28F63" width="2.46" height="0.594"/>
	</g>
	<g>
		<rect x="65.951" y="274.603" fill="#F28F63" width="2.46" height="0.594"/>
	</g>
</g>
<g>
	<path fill="#E2E2E2" d="M286.302,48.019c-1.178,0-2.328,0.115-3.446,0.324c-0.194-12.357-10.266-22.315-22.669-22.315
		c-11.492,0-20.98,8.55-22.469,19.634c-3.505-6.377-10.285-10.7-18.077-10.7c-2.488,0-4.873,0.441-7.081,1.248
		c-4.402-8.496-13.27-14.305-23.499-14.305c-9.352,0-17.565,4.857-22.27,12.181c-5.187-4.987-12.23-8.058-19.994-8.058
		c-10.963,0-20.498,6.112-25.384,15.114c-1.891-0.442-3.859-0.683-5.884-0.683c-4.697,0-9.096,1.263-12.888,3.458
		c-0.284-0.014-0.569-0.022-0.856-0.022c-9.299,0-16.837,7.538-16.837,16.837c0,5.101,2.271,9.668,5.854,12.756
		C93.938,84.185,103.819,92,115.53,92c5.482,0,10.56-1.717,14.738-4.635c3.363,9.888,12.72,17.005,23.746,17.005
		c1.416,0,2.802-0.123,4.154-0.349c1.925,10.653,11.175,18.754,22.35,18.896c-0.028,0.343-0.046,0.689-0.046,1.038
		c0,6.752,5.264,12.271,11.911,12.685c0.073,0.271,0.157,0.537,0.263,0.792c-2.615,0.423-4.615,2.685-4.615,5.42
		c0,3.036,2.461,5.498,5.498,5.498s5.498-2.461,5.498-5.498c0-0.478-0.067-0.94-0.182-1.383c3.53-0.086,6.367-2.969,6.367-6.521
		c0-0.964-0.214-1.876-0.589-2.7c1.085,0.19,2.199,0.294,3.338,0.294c10.627,0,19.242-8.615,19.242-19.242
		c0-1.633-0.205-3.218-0.588-4.732c5.053-3.624,9.025-8.652,11.35-14.517c4.678,3.457,10.463,5.504,16.726,5.504
		c11.028,0,20.57-6.34,25.197-15.571c1.999,0.737,4.16,1.14,6.414,1.14c10.248,0,18.555-8.307,18.555-18.555
		C304.857,56.326,296.55,48.019,286.302,48.019z"/>
</g>
<text transform="matrix(1 0 0 1 31.2451 407.5273)" fill="#FF0000" font-family="'Impact'" font-size="73.7542">ODAI HATEM</text>
<text transform="matrix(1 0 0 1 186.1274 431.2528)" fill="#3F3B48" font-family="'Impact'" font-size="26.4653">CREATIVE FACTORY</text>
<text transform="matrix(1 0 0 1 186.0713 446.5791)" fill="#D0CFCF" font-family="'Kartika'" font-size="17.2191" letter-spacing="2">www.odaihatem.net</text>
<rect x="334" y="341" fill="#FF0000" width="5" height="11"/>
<rect x="363" y="340" fill="#FF0000" width="5" height="11"/>
</svg>
